<svg id="desk" xmlns="http://www.w3.org/2000/svg" viewBox="0 0 612 275">
  <title>desk</title>
  <polyline id="desk_metal" data-name="desk metal" points="25.67 132.44 35.3 275 57.81 275 56.33 242.67 98.41 242.67 99.21 275 118.08 275 117.07 242.37 513.22 247.7 511.69 275 529.96 275 531.59 247.7 552.93 247.7 551.21 275 572.94 275 584.04 134.81" fill="#b4c9cf"/>
  <path id="desk_hole" data-name="desk hole" d="M553.22,219.26s-.52,10.44-.59,11.78-.67,2.81-2.3,2.89-490.4-5-491.14-5-2.75.22-2.71-2.34-4.74-92.07-4.74-92.07l505.48,4.74" fill="#141819"/>
  <path id="desktop_edge" data-name="desktop edge" d="M21.36,110.78s-4.8,5.89-4,12.78,4.45,10.33,9.67,11.55,34.11,1.45,43.56,1.45,282.07,6.55,501.33,5.66c0,0,21.11,2.12,21.11-12.44,0-.78.81-9.19-4.59-13.93" fill="#be762a"/>
  <path id="desktop" d="M30.7,119.19s380.74,8.37,535.86,6.14c0,0,11.88.23,17.44-.44s8.22-2.67,5.56-8.78-35.12-82.89-37.23-87.44-6.11-5.89-13-6S99.06,17.94,96.78,18s-11-.33-14.11,4.78-58.84,84.11-61.11,87.66S19.46,118.94,30.7,119.19Z" fill="#f3deb3"/>
</svg>
