<svg xmlns="http://www.w3.org/2000/svg" viewBox="0 0 612 796.33">
  <title>desk_and_chalkboard</title>
  <g id="desk">
    <polyline id="desk_metal" data-name="desk metal" points="25.67 653.78 35.3 796.33 57.81 796.33 56.33 764 98.41 764 99.21 796.33 118.08 796.33 117.07 763.7 513.22 769.04 511.69 796.33 529.96 796.33 531.59 769.04 552.93 769.04 551.21 796.33 572.94 796.33 584.04 656.15" fill="#b4c9cf"/>
    <path id="desk_hole" data-name="desk hole" d="M553.22,740.59s-.52,10.45-.59,11.78-.67,2.82-2.3,2.89-490.4-5-491.14-5-2.75.22-2.71-2.33-4.74-92.08-4.74-92.08l505.48,4.74" fill="#141819"/>
    <path id="desktop_edge" data-name="desktop edge" d="M21.36,632.11s-4.8,5.89-4,12.78,4.45,10.33,9.67,11.55,34.11,1.45,43.56,1.45,282.07,6.55,501.33,5.67c0,0,21.11,2.12,21.11-12.45,0-.78.81-9.18-4.59-13.92" fill="#be762a"/>
    <path id="desktop" d="M30.7,640.52s380.74,8.37,535.86,6.15c0,0,11.88.22,17.44-.45s8.22-2.66,5.56-8.78S554.44,554.56,552.33,550s-6.11-5.89-13-6-440.27-4.72-442.55-4.67-11-.33-14.11,4.78-58.84,84.11-61.11,87.67S19.46,640.28,30.7,640.52Z" fill="#f3deb3"/>
  </g>
  <g id="chalkboard">
    <polyline id="chalkboard-2" data-name="chalkboard" points="0.22 23.56 0 455.33 538.96 455.56 538.96 25.33" fill="#2d5c41"/>
    <polygon id="border" points="0 447.78 535.89 449.78 535.22 30 0 30 0 14.89 549 14.89 549 462.67 0 462.67 0 447.78" fill="#a47048"/>
  </g>
</svg>
