<svg xmlns="http://www.w3.org/2000/svg" viewBox="0 0 227.7 93.33">
  <title>eraser</title>
  <g id="eraser">
    <path d="M11.13,72.22S7,70.29,9.05,63.63s7.86-21.34,9-24.3,5.19-7.11,8.45-9S40.16,18.88,44,15.92s6.52-4.29,18.22-3.7,123.7,11,136.3,11.85S219.72,21.7,217.2,37.4s-4.8,21.81-9,26.07" fill="#f29da4"/>
    <path d="M121.65,84.51c-1.34,0-95.86-8-103-9.48s-19.62-2.14,1.63-15.4c23.67-14.78,21.94-13.53,56.6-9C113.73,55.36,198.39,61.85,204.61,61s7.55-3.11,7.55-3.11-3.7,9.78-29.48,25.33c0,0-7,6.07-28.59,4.3S121.65,84.51,121.65,84.51Z" fill="#da7376"/>
  </g>
</svg>
