<svg xmlns="http://www.w3.org/2000/svg" viewBox="0 0 638.67 64">
  <title>clickpen</title>
  <g id="clickpen">
    <path d="M38.61,29.65a13.48,13.48,0,0,0-1.43,5.66A13.56,13.56,0,0,0,38.61,41a8.81,8.81,0,0,0,1.52-5.67A10.72,10.72,0,0,0,38.61,29.65Z" fill="#222956"/>
    <path d="M43.13,31.09a164.26,164.26,0,0,0-20.39,3A1.76,1.76,0,0,0,22,35.49a2.09,2.09,0,0,0,.61,1.37,127.5,127.5,0,0,0,20.56,2.67Z" fill="#8e8e8e"/>
    <path d="M122,20.61V50c-29-2.44-56.86-5.41-83.41-9a13.82,13.82,0,0,0,1.52-5.67,13.74,13.74,0,0,0-1.52-5.66C64.93,26,92.85,23,122,20.61Z" fill="#2c3171"/>
    <path d="M122,20.61l457.44,0s2.89,3.77,3,13.55-3,13.45-3,13.45L122,50Z" fill="#dadadc"/>
    <path d="M597.94,27.72s24.74.46,29.63.42,5.19,11.51,0,11.36-29.63,0-29.63,0Z" fill="#3a448e"/>
    <path d="M579.46,47.65s3-3.45,3-13.45-3-13.55-3-13.55,3.45.27,3.45-2.12-.45-3.83-4.06-3.88-141.11,1-141.11,1-1.17,4.88-4.72,4.91-5.11-4.41-5.11-4.41-5.39-.05-6.84-.05S419.8,14,419.8,12.7s.22-1.67,3.66-1.83S555.57,8.42,581.35,8.65c0,0,13.33-.78,14.56,8.11v3.85s3.11-.74,3.44,1.48a54.71,54.71,0,0,1,.89,11.22c-.11,5.89-1.22,14.45-1.78,14.34S579.46,47.65,579.46,47.65Z" fill="#2c3171"/>
  </g>
</svg>
