<svg id="Pencil" xmlns="http://www.w3.org/2000/svg" viewBox="0 0 924 71">
  <title>pencil</title>
  <polyline id="graphite" points="71.74 35.79 47.39 39.48 72.02 44.54 74.11 39.48" fill="#3e3b36"/>
  <path id="wood" d="M139.18,24.18,71.49,35.84s.77.95.83,3.69a13.46,13.46,0,0,1-.83,4.91L126.7,54.77l14.61-2.16" fill="#e1b681"/>
  <path id="orange_paint" data-name="orange paint" d="M139.08,23.85s-12.75.95-12.37,6.31,6,1.91,6.18,6.5-6.19,2.55-6.19,7.53,6.45,2,5.37,6.76c-.45,2-5.37,3.82-5.37,3.82l674.65,1.79s2.94-19.13,0-32.71Z" fill="#f08501"/>
  <path id="eraser" d="M861.13,23.85h22.1c3.25,0,6,4.49,6,9.85S890.4,54,884,54.84H861.13" fill="#995c6f"/>
  <path id="metal" d="M800.4,57.32s4.11-20.27,0-34.91h62.45a88.1,88.1,0,0,1,1.44,17.46,90.68,90.68,0,0,1-1.72,17.45Z" fill="#c4c6c3"/>
</svg>
