<svg xmlns="http://www.w3.org/2000/svg" viewBox="0 0 177 149.67">
  <title>sharpener</title>
  <g id="sharpener">
    <path d="M107.16,114.69c14.82-6.45,22.81-8.6,29.12-8.78,0,0,1.93,0,9.83-4.23s9.34-5,11.57-6,2.63-.79,2.77-7.24-.14-31.25,0-34.73.65-4.08-3.49-7.5-39.14-31-40.65-32.3-5.86-.6-10.86,2.17-11.84,5.19-16.38,9S74.27,37.41,50.59,45c0,0-14.47,1.9-24.21,6.57s-12.63,5.53-13.29,5.93-1.84,1.67-2,6.52-.79,36.43-.79,37.55.92,2.3,2.89,4.21,40.66,36.38,41.71,37.43,2.76,1.25,6.31-.33,14.61-6.44,18-8.15S94,120.42,107.16,114.69Z" fill="#0384e0"/>
    <ellipse cx="29.52" cy="97.73" rx="11.91" ry="19" transform="translate(-41.09 23.99) rotate(-26.95)" fill="#00298f"/>
    <path d="M57,91.62c-.19-.07-17.41-15.23-17.41-15.23L133.74,33l-9.54-9.53L96.7,36s3.23,3.09,3.55,5-1.9,3.88-4,5.06S33.88,72.61,33.88,72.61l22,19.53L38.53,76.86,42,78.48" fill="#00298f"/>
    <polygon points="57.03 91.62 42.02 78.48 135.75 34.64 151.72 47.59 57.03 91.62" fill="#cecfca"/>
    <polygon points="38.53 76.86 42.02 78.48 135.75 34.64 130.1 33.42 38.53 76.86" fill="#919eae"/>
    <path d="M57,91.62,42,78.48Z" fill="#cecfca"/>
    <polygon points="55.85 92.14 57.03 91.62 42.02 78.48 38.53 76.86 55.85 92.14" fill="#808b96"/>
  </g>
</svg>
