<svg xmlns="http://www.w3.org/2000/svg" viewBox="0 0 1104 490.15">
  <title>stapler</title>
  <g id="stapler">
    <path d="M161.74,267.56V176.44l651.11-8-14.67,61.78L216,281.33s-1.93,1.19-8.89-2.66a8.76,8.76,0,0,1-8.89,3.7c-6.22-.89-15.85-4.59-15.41-7.11s1.63-2.22-3-2.37S167.22,272.74,161.74,267.56Z" fill="#d3d3d3"/>
    <path d="M1039.07,130.81v46.82l-790,14.81s-1.11,4.23-8.44,4.45c-6.59.2-40.43,1.47-55.3-.68-.14,0-2,77.06-2.13,77-1.56-.43-4.28-.23-4.8-.4-.13,0,1.06-78,.93-78-15.61-5-84.7-29.46-84.7-29.46a60.54,60.54,0,0,1,3.11-14.89c2.89-8.88,31.55-109.55,37.11-112.88s6-8.23,29.33-8.45S436,28,436,28l58.22,17.33s122.22-.44,210.45,8S855.74,70,961.74,96.67c0,0,48.89,12.33,64.22,16S1039.07,130.81,1039.07,130.81Z" fill="#1e1e1e"/>
    <path d="M657.51,242.57c-3.29,12.5-12.22,29.87-129.85,40.54-24.25,2.2-50.8,6.09-81.48,9.48C218.2,317.82,39.37,354.52,32.85,356s-9.78,4.74-12.15,11.85-5.93,22.82-7.7,30.82S8.85,415,10.92,415.56s3,.88,2.08,3.55,0,6.52,7.7,10.37,81.48,33.48,100.74,40.3,31.11,4.15,42.67,2.07,906.66-140.15,916.15-141.92,5.92-11.86,5.92-11.86c5.93-1.18,7.71-3.26,7.71-3.26s-30.23-142.51-37-160.88-21.63-16-32.3-15.71S841.74,150.37,810,151.85c-27.93,1.31-36.08,65.41-37.63,80.64" fill="#282828"/>
    <path d="M266.07,318.67l486.78-59.56c-3,16.74-1.19,36.15-27.85,40s-359.56,53.48-364.3,55.56-9.33,4.44-14.52,5.33S233,380.44,224.85,381.33s-13.19,3.26-23.56-1.48-82.22-32-82.22-32a33.65,33.65,0,0,1,0-4.15c.15-1.92,1.33-2.81,5.93-3.7S266.07,318.67,266.07,318.67Z" fill="#d3d3d3"/>
    <path d="M201.66,358.15c-.37,1.22,2.94,4.84,6.52,4.22.92-.16,1.92-.27,1.93-1.56,0-2.84-2.82-4-4.52-4.22S202,356.93,201.66,358.15Z" fill="#1e1e1e"/>
    <path d="M178.26,349c-.37,1.22,2.93,4.84,6.51,4.22.92-.16,1.93-.27,1.93-1.56,0-2.84-2.81-4-4.52-4.22S178.63,347.81,178.26,349Z" fill="#1e1e1e"/>
  </g>
</svg>
